<svg id="Layer_3" enable-background="new 0 0 64 64" height="512" viewBox="0 0 64 64" width="512" xmlns="http://www.w3.org/2000/svg"><g><path d="m11 17h-4c-.553 0-1 .447-1 1v4c0 .553.447 1 1 1h4c.553 0 1-.447 1-1v-4c0-.553-.447-1-1-1zm-1 4h-2v-2h2z"/><path d="m21 17h-4c-.553 0-1 .447-1 1v4c0 .553.447 1 1 1h4c.553 0 1-.447 1-1v-4c0-.553-.447-1-1-1zm-1 4h-2v-2h2z"/><path d="m27 23h4c.553 0 1-.447 1-1v-4c0-.553-.447-1-1-1h-4c-.553 0-1 .447-1 1v4c0 .553.447 1 1 1zm1-4h2v2h-2z"/><path d="m11 25h-4c-.553 0-1 .447-1 1v4c0 .553.447 1 1 1h4c.553 0 1-.447 1-1v-4c0-.553-.447-1-1-1zm-1 4h-2v-2h2z"/><path d="m21 25h-4c-.553 0-1 .447-1 1v4c0 .553.447 1 1 1h4c.553 0 1-.447 1-1v-4c0-.553-.447-1-1-1zm-1 4h-2v-2h2z"/><path d="m27 31h4c.553 0 1-.447 1-1v-4c0-.553-.447-1-1-1h-4c-.553 0-1 .447-1 1v4c0 .553.447 1 1 1zm1-4h2v2h-2z"/><path d="m11 33h-4c-.553 0-1 .447-1 1v4c0 .553.447 1 1 1h4c.553 0 1-.447 1-1v-4c0-.553-.447-1-1-1zm-1 4h-2v-2h2z"/><path d="m21 33h-4c-.553 0-1 .447-1 1v4c0 .553.447 1 1 1h4c.553 0 1-.447 1-1v-4c0-.553-.447-1-1-1zm-1 4h-2v-2h2z"/><path d="m37 23h4c.553 0 1-.447 1-1v-4c0-.553-.447-1-1-1h-4c-.553 0-1 .447-1 1v4c0 .553.447 1 1 1zm1-4h2v2h-2z"/><path d="m47 23h4c.553 0 1-.447 1-1v-4c0-.553-.447-1-1-1h-4c-.553 0-1 .447-1 1v4c0 .553.447 1 1 1zm1-4h2v2h-2z"/><path d="m41.219 25.375-3.302 4.128-1.21-1.21-1.414 1.414 2 2c.187.189.442.293.707.293.019 0 .037-.001.056-.002.283-.016.548-.151.726-.373l4-5z"/><path d="m31.359 33.231-2.359 1.967-2.359-1.967-1.282 1.538 2.078 1.731-2.078 1.731 1.282 1.538 2.359-1.967 2.359 1.967 1.282-1.538-2.078-1.731 2.078-1.731z"/><path d="m61.074 52.419-.097-.048c-2.453-1.226-3.977-3.693-3.977-6.436 0-1.112.263-2.225.76-3.218 1.246-2.491.901-5.413-.76-7.543v-27.174c0-1.654-1.346-3-3-3h-2v-1c0-1.654-1.346-3-3-3s-3 1.346-3 3v1h-4v-1c0-1.654-1.346-3-3-3s-3 1.346-3 3v1h-4v-1c0-1.654-1.346-3-3-3s-3 1.346-3 3v1h-4v-1c0-1.654-1.346-3-3-3s-3 1.346-3 3v1h-4v-1c0-1.654-1.346-3-3-3s-3 1.346-3 3v1h-2c-1.654 0-3 1.346-3 3v34c0 1.654 1.346 3 3 3h36.933c.041.31.067.622.067.935 0 2.743-1.524 5.21-3.971 6.434l-.11.054c-1.184.592-1.919 1.782-1.919 3.105 0 1.914 1.558 3.472 3.472 3.472h5.629c.465 2.279 2.484 4 4.899 4s4.434-1.721 4.899-4h5.629c1.914 0 3.472-1.558 3.472-3.472 0-1.323-.735-2.513-1.926-3.109zm-13.074-48.419c0-.552.448-1 1-1s1 .448 1 1v4c0 .552-.448 1-1 1s-1-.448-1-1zm-10 0c0-.552.448-1 1-1s1 .448 1 1v4c0 .552-.448 1-1 1s-1-.448-1-1zm-10 0c0-.552.448-1 1-1s1 .448 1 1v4c0 .552-.448 1-1 1s-1-.448-1-1zm-10 0c0-.552.448-1 1-1s1 .448 1 1v4c0 .552-.448 1-1 1s-1-.448-1-1zm-10 0c0-.552.448-1 1-1s1 .448 1 1v4c0 .552-.448 1-1 1s-1-.448-1-1zm-4 3h2v1c0 1.654 1.346 3 3 3s3-1.346 3-3v-1h4v1c0 1.654 1.346 3 3 3s3-1.346 3-3v-1h4v1c0 1.654 1.346 3 3 3s3-1.346 3-3v-1h4v1c0 1.654 1.346 3 3 3s3-1.346 3-3v-1h4v1c0 1.654 1.346 3 3 3s3-1.346 3-3v-1h2c.552 0 1 .448 1 1v5h-52v-5c0-.552.448-1 1-1zm0 36c-.552 0-1-.448-1-1v-27h52v18.255l-.072-.062c-.85-.729-1.822-1.285-2.86-1.657.573-.692.932-1.568.932-2.536 0-2.206-1.794-4-4-4s-4 1.794-4 4c0 .967.359 1.844.932 2.536-1.039.372-2.011.928-2.86 1.656l-1.099.941c-2.483 2.129-3.196 5.658-1.733 8.583.046.092.08.189.122.283h-36.362zm43-14c0-1.103.897-2 2-2s2 .897 2 2-.897 2-2 2-2-.897-2-2zm2 32c-1.302 0-2.402-.839-2.816-2h5.631c-.413 1.161-1.513 2-2.815 2zm10.528-4h-21.056c-.812 0-1.472-.66-1.472-1.472 0-.562.312-1.066.807-1.314l.11-.054c3.136-1.568 5.083-4.72 5.083-8.225 0-1.421-.336-2.843-.971-4.112-1.052-2.103-.54-4.64 1.245-6.169l1.099-.942c1.288-1.105 2.931-1.712 4.627-1.712s3.339.607 4.627 1.711v.001l1.099.941c1.785 1.529 2.297 4.066 1.245 6.169-.635 1.27-.971 2.692-.971 4.113 0 3.506 1.947 6.657 5.09 8.229l.097.048c.501.25.813.755.813 1.316 0 .812-.66 1.472-1.472 1.472z"/></g></svg>