<?xml version="1.0" encoding="UTF-8" standalone="no"?><!-- Generator: Gravit.io --><svg xmlns="http://www.w3.org/2000/svg" xmlns:xlink="http://www.w3.org/1999/xlink" style="isolation:isolate" viewBox="0 0 512 512" width="512pt" height="512pt"><defs><clipPath id="_clipPath_VKKBAXJiBVPYGzV8Nfdn7t0wVhF7haVm"><rect width="512" height="512"/></clipPath></defs><g clip-path="url(#_clipPath_VKKBAXJiBVPYGzV8Nfdn7t0wVhF7haVm)"><g><path d=" M 145.153 253.672 C 145.153 317.648 197.014 369.509 260.99 369.509 C 324.966 369.509 376.827 317.648 376.827 253.672 C 376.827 189.696 324.966 137.835 260.99 137.835 C 197.045 137.906 145.227 189.727 145.153 253.672 Z  M 260.99 153.812 C 316.143 153.812 360.85 198.519 360.85 253.672 C 360.85 308.825 316.143 353.532 260.99 353.532 C 205.837 353.532 161.13 308.825 161.13 253.672 C 161.192 198.546 205.864 153.874 260.99 153.812 Z " fill="rgb(255,255,255)"/><path d=" M 268.978 115.376 L 268.978 39.488 C 268.978 35.077 265.401 31.5 260.99 31.5 C 256.578 31.5 253.002 35.077 253.002 39.488 L 253.002 115.376 C 253.002 119.788 256.578 123.364 260.99 123.364 C 265.401 123.364 268.978 119.788 268.978 115.376 Z " fill="rgb(255,255,255)"/><path d=" M 328.89 115.376 L 328.89 79.429 C 328.89 75.018 325.313 71.441 320.901 71.441 C 316.49 71.441 312.913 75.018 312.913 79.429 L 312.913 115.376 C 312.913 119.788 316.49 123.364 320.901 123.364 C 325.313 123.364 328.89 119.788 328.89 115.376 Z " fill="rgb(255,255,255)"/><path d=" M 209.067 115.376 L 209.067 79.429 C 209.067 75.018 205.49 71.441 201.078 71.441 C 196.667 71.441 193.09 75.018 193.09 79.429 L 193.09 115.376 C 193.09 119.788 196.667 123.364 201.078 123.364 C 205.49 123.364 209.067 119.788 209.067 115.376 Z " fill="rgb(255,255,255)"/></g><text transform="matrix(1,0,0,1,194,280.704)" style="font-family:'Overpass Mono';font-weight:700;font-size:72px;font-style:normal;fill:#ffffff;stroke:none;">TZS</text><path d=" M 45.359 437.575 C 85.171 426.55 127.819 414.034 162.183 392.678 C 176.709 383.651 189.434 373.584 208.092 372.215 C 229.817 370.622 251.809 378.287 272.967 381.568 C 294.414 384.892 316.268 384.003 337.673 387.178 C 347.089 388.574 356.989 391.087 364.007 397.054 C 373.536 391.949 387.618 390.548 398.32 388.058 C 418.473 383.369 438.323 374.527 459.501 374.527 C 478.144 374.527 502.216 383.905 496.148 403.967 C 491.845 418.193 471.49 422.808 457.831 427.509 C 435.353 435.247 413.583 446.171 392.566 456.517 C 382.81 461.32 373.167 466.296 363.615 471.401 C 354.784 476.121 346.186 483.257 335.61 484.71 C 315.069 487.529 290.699 481.471 269.854 480.764 C 231.171 479.45 184.949 478.199 152.049 498.819 C 143.26 504.327 136.578 508.9 125.683 506.203 C 116.745 503.989 107.877 501.524 99.238 498.533 C 81.414 492.362 64.22 483.719 51.985 470.571 C 45.801 463.926 28.095 442.356 45.359 437.575 Z " fill="rgb(255,255,255)"/><text transform="matrix(1,0,0,1,112,111.352)" style="font-family:'Overpass Mono';font-weight:700;font-size:36px;font-style:normal;fill:#ffffff;stroke:none;">Tax</text></g></svg>