<?xml version="1.0"?>
<svg xmlns="http://www.w3.org/2000/svg" width="512" height="512" viewBox="0 0 128 128"><g><path d="M122.687,0H35.937a1.75,1.75,0,0,0-1.75,1.75V20.125H5.312a1.75,1.75,0,0,0-1.75,1.75v89.06A17.082,17.082,0,0,0,20.625,128h86.75a17.081,17.081,0,0,0,17.062-17.062V1.747A1.749,1.749,0,0,0,122.687,0ZM7.062,110.935V23.625H34.187v87.31a13.563,13.563,0,0,1-27.125,0Zm113.875,0A13.578,13.578,0,0,1,107.375,124.5H30.967a17.177,17.177,0,0,0,6.72-13.562V3.5h83.25Z"/><path d="M64.235,31.592H76.092a1.75,1.75,0,0,0,0-3.5H65.985V22.544H76.092a1.75,1.75,0,0,0,0-3.5H65.985V13.5H76.092a1.75,1.75,0,0,0,0-3.5H64.235a1.75,1.75,0,0,0-1.75,1.75v18.1A1.75,1.75,0,0,0,64.235,31.592Z"/><path d="M45.937,31.592a1.749,1.749,0,0,0,1.75-1.75V17.611L56.33,30.8a1.75,1.75,0,0,0,3.214-.959V11.747a1.75,1.75,0,0,0-3.5,0V23.978L47.4,10.788a1.75,1.75,0,0,0-3.214.959v18.1A1.75,1.75,0,0,0,45.937,31.592Z"/><path d="M82.033,31.519A1.752,1.752,0,0,0,84,30.8l4.464-6.814L92.926,30.8a1.75,1.75,0,0,0,3.214-.959V11.747a1.75,1.75,0,0,0-3.5,0V23.978l-2.715-4.143a1.75,1.75,0,0,0-2.928,0l-2.714,4.143V11.747a1.75,1.75,0,0,0-3.5,0v18.1A1.75,1.75,0,0,0,82.033,31.519Z"/><path d="M108.687,28.092h-7.856a1.75,1.75,0,0,0,0,3.5h7.856a5.756,5.756,0,0,0,5.75-5.75V24.794a5.756,5.756,0,0,0-5.75-5.75h-3.856a2.253,2.253,0,0,1-2.25-2.25V15.747a2.253,2.253,0,0,1,2.25-2.25h7.856a1.75,1.75,0,0,0,0-3.5h-7.856a5.756,5.756,0,0,0-5.75,5.75v1.047a5.756,5.756,0,0,0,5.75,5.75h3.856a2.253,2.253,0,0,1,2.25,2.25v1.048A2.253,2.253,0,0,1,108.687,28.092Z"/><path d="M45.937,60.25h66.75a1.749,1.749,0,0,0,1.75-1.75V39.85a1.749,1.749,0,0,0-1.75-1.75H45.937a1.75,1.75,0,0,0-1.75,1.75V58.5A1.75,1.75,0,0,0,45.937,60.25Zm1.75-18.65h63.25V56.75H47.687Z"/><path d="M54.062,66.758a1.75,1.75,0,0,0,0,3.5h50.5a1.75,1.75,0,0,0,0-3.5Z"/><path d="M45.937,82.192h66.75a1.75,1.75,0,0,0,0-3.5H45.937a1.75,1.75,0,0,0,0,3.5Z"/><path d="M54.062,90.628a1.75,1.75,0,0,0,0,3.5h50.5a1.75,1.75,0,0,0,0-3.5Z"/><path d="M45.937,106.063h66.75a1.75,1.75,0,0,0,0-3.5H45.937a1.75,1.75,0,0,0,0,3.5Z"/><path d="M104.562,114.5h-50.5a1.75,1.75,0,0,0,0,3.5h50.5a1.75,1.75,0,0,0,0-3.5Z"/></g></svg>
